<svg xmlns="http://www.w3.org/2000/svg" xmlns:xlink="http://www.w3.org/1999/xlink" width="18" height="18" class="icon" p-id="4436" t="1509505112024" version="1.1" viewBox="0 0 1024 1024"><defs><style type="text/css"/></defs><path d="M511.988 949.502c-241.237 0-437.5-196.263-437.5-437.5s196.263-437.5 437.5-437.5c241.25 0 437.525 196.263 437.525 437.5s-196.275 437.5-437.525 437.5ZM511.988 99.5c-227.451 0-412.5 185.05-412.5 412.5 0 227.463 185.05 412.5 412.5 412.5 227.463 0 412.525-185.063 412.525-412.5 0-227.463-185.063-412.5-412.525-412.5Z" p-id="4437"/><path d="M 404.907 313.628 L 404.907 710.329 L 404.907 313.628 Z" p-id="4438"/><path fill="#FFA42F" d="M394.461 348.546h58.594v326.883h-58.594v-326.883Z" p-id="4439"/><path d="M 619.093 313.628 L 619.093 710.329 L 619.093 313.628 Z" p-id="4440"/><path fill="#FFA42F" d="M570.945 348.546h58.594v326.883h-58.594v-326.883Z" p-id="4441"/></svg>